<?xml version="1.0" standalone="yes"?>
<svg xmlns="http://www.w3.org/2000/svg" width="212" height="60">
<path style="fill:#ffffff; stroke:none;" d="M0 0L0 60L212 60L212 0L0 0z"/>
<path style="fill:#000000; stroke:none;" d="M113 14C103.866 12.3042 94.2796 12 85 12L84 17C90.7638 21.2285 89.9157 29.6699 82 32C81.5457 28.7843 79.7562 26.1628 79.2238 22.9853C77.9743 15.5293 81.2868 7.33686 71 7L71 13C63.7179 7.94104 53.3023 3.74015 48.3935 14.1698C46.8542 17.4403 46.4582 21.4519 46 25C40.6215 20.53 33.6863 20.8201 27 20.1698C24.7298 19.949 21.462 20.481 19.5424 18.9769C16.2855 16.4248 20.7806 13.9896 23.0162 13.483C28.7017 12.1947 35.1986 13 41 13L41 6C32.4526 6 21.9644 4.4201 14.1744 8.71991C8.62147 11.7849 6.64634 21.7925 11.6528 26.3966C17.0464 31.3568 27.6241 25.6395 33.8958 29.0239C40.5277 32.6027 38.7414 37.9951 32.8302 40.7361C26.0862 43.8633 16.2841 43 9 43L10 50C20.5544 50 40.5503 52.118 44 39C51.4933 42.1859 65.7872 48.684 71 39C76.5696 46.7948 92.2353 46.1036 96.7716 37.4198C99.6433 31.9225 95.6025 24.3366 103 22C102.082 29.2646 101.314 36.6846 101 44C113.31 43.4275 111 32.4779 111 23L114 23L114 43C117.738 42.902 126.617 43.5084 129 41C137.869 44.7424 147.595 41.2476 157 43L157 30C162.888 35.8837 168.191 42.8951 177 43C176.545 34.3132 180.129 23.4137 177.566 15.1088C176.317 11.0585 171.55 10.5186 169.434 14.2292C167.221 18.1086 168 23.714 168 28C162.768 22.0506 159.488 8.67448 151 8L151 11C144.03 11 136.405 9.91766 130 13C129.957 8.2424 129.823 4.8452 125 3L124 6C116.132 1.76352 113.028 6.13076 113 14z"/>
<path style="fill:#e2dac0; stroke:none;" d="M114 7L114 10C118.265 11.3482 120.258 10.528 121 6C118.558 6.10952 116.377 6.42799 114 7M122 7C124.3 11.4947 129.449 12.1995 128 6L122 7z"/>
<path style="fill:#ffffff; stroke:none;" d="M10 44L11 49C21.7712 49 37.3261 50.2313 43.4074 39.2809C45.4615 35.5821 47.1355 29.0781 44.1057 25.4992C38.2884 18.6277 26.4114 23.6861 19.2323 20.3966C15.3796 18.6313 16.8581 14.3899 20.1096 13.0324C25.8339 10.6426 33.9137 12 40 12L40 7C31.8746 7 21.4582 5.45155 14.3048 10.2276C9.67708 13.3174 8.26964 21.3657 12.6528 25.3966C18.3747 30.6586 29.4048 24.0522 35.7901 28.5887C42.2091 33.1491 40.254 38.7589 33.8302 41.7361C27.2071 44.8057 17.1827 44 10 44M73 16C72.3152 17.2484 72.2512 17.5484 72 19C69.3928 12.294 58.649 4.25788 52.0579 11.1782C46.7728 16.7274 45.7162 28.7539 47.2785 35.9807C49.0465 44.1585 65.3953 44.862 70.1065 39.152C74.6384 33.6592 73 22.6335 73 16M72 8C72.0801 15.2009 74.5344 21.6005 73.8302 29C73.517 32.2921 71.801 37.3476 74.0278 40.2971C75.9366 42.8255 80.1446 42.942 83 42.9815C98.4079 43.1945 97.2657 28.5089 98 17L92 16C90.3719 23.3046 90.0423 32.3126 81 33C80.5667 29.7973 78.941 27.1348 78.3395 23.9853C77.1569 17.7929 80.2971 9.35444 72 8M152 9C152.937 14.0676 151.718 17.1975 151.129 22.0895C150.359 28.4813 150.239 34.6105 149 41L156 41L156 26C161.465 31.596 166.708 40.6358 175 42C176.246 35.2863 176.909 27.8289 176.981 21C177.005 18.7564 177.175 15.4657 175.262 13.8511C172.667 11.6599 170.421 14.7761 169.724 17.0448C168.382 21.4114 168.73 26.7051 170 31C162.317 26.7601 158.535 16.6072 155 9L152 9z"/>
<path style="fill:#45693f; stroke:none;" d="M114 11C114.729 14.4029 116.806 13.9865 120 14C119.945 18.6047 119.596 21.3101 115 23L115 36L122 36C122 27.9076 122.015 20.029 121 12C118.323 12.1687 116.536 11.8837 114 11M122 11C122.636 19.0529 123 26.8984 123 35L128 35C129.385 27.5418 130.774 19.4531 129 12C126.353 12.1798 124.531 11.8193 122 11z"/>
<path style="fill:#ffffff; stroke:none;" d="M149 37C143.912 35.9504 139.221 35.0144 134 35L134 29C139.645 29 146.902 30.619 150 25C146.305 24.533 142.735 24.0309 139 24C142.843 22.8957 146.085 23.5057 150 24L150 19L137 19C137.406 21.0924 137.217 21.0197 139 22C136.174 22 136.209 20.8584 136 18L152 18L152 12C146.984 12 137.723 10.2267 133.434 13.179C129.102 16.1601 130.028 28.1942 129.425 32.9992C129.171 35.0272 128.697 37.5181 130.029 39.2971C134.192 44.8607 145.864 41.8416 149 37M86 13C86.9342 16.1266 87.8734 17.0658 91 18C93.3869 14.3639 96.3351 15.6762 100 17L99 21C104.215 21.1076 109.753 22.8052 114.941 21.7716C117.294 21.3029 119.885 19.1268 117.953 16.588C116.358 14.4913 112.33 14.8865 110 14.5756C102.101 13.5218 93.9702 13 86 13z"/>
<path style="fill:#000000; stroke:none;" d="M65 30C65 26.5689 66.1515 20.3796 63.4113 17.7608C58.3961 12.9679 50.4981 24.9281 55.6034 28.9722C57.8714 30.7688 62.2968 29.9997 65 30z"/>
<path style="fill:#ffffff; stroke:none;" d="M64 29C63.9997 26.408 64.8138 21.7629 62.973 19.6474C59.214 15.3275 50.124 27.2831 59.034 28.8519C60.635 29.1338 62.3843 28.9943 64 29M104 22L102 43C112.185 41.3641 110 31.0873 110 23L104 22M149 29C144.442 30.3473 139.73 30 135 30L135 34C139.857 34.0402 144.268 35.0238 149 36C149.467 33.4149 149.888 31.4599 149 29z"/>
<path style="fill:#f68cec; stroke:none;" d="M123 41L128 42L128 36C124.526 36.5765 123.577 37.5255 123 41M115 37L115 42C118.698 41.4258 120.316 40.3453 122 37L115 37z"/>
</svg>
