<svg xmlns="http://www.w3.org/2000/svg" viewBox="0 0 1782.16 1826.38"><defs><style>.cls-1{fill:#f9b2ef;}.cls-1,.cls-3,.cls-4,.cls-5,.cls-6{stroke:#000;stroke-miterlimit:10;}.cls-2{opacity:0.4;}.cls-3,.cls-4,.cls-7{fill:#fff;}.cls-4{stroke-width:11px;}.cls-5{fill:#ffb0f4;}</style></defs><title>Fichier 2</title><g id="Calque_2" data-name="Calque 2"><g id="Calque_1-2" data-name="Calque 1"><rect class="cls-1" x="245.45" y="0.5" width="1536" height="1824"/><g class="cls-2"><ellipse class="cls-3" cx="311.44" cy="68.5" rx="49.99" ry="50"/><ellipse class="cls-3" cx="437.4" cy="217.5" rx="44.99" ry="45"/><ellipse class="cls-3" cx="334.43" cy="340.5" rx="26.99" ry="27"/><ellipse class="cls-3" cx="605.35" cy="68.5" rx="49.99" ry="50"/><ellipse class="cls-3" cx="731.32" cy="217.5" rx="44.99" ry="45"/><ellipse class="cls-3" cx="628.35" cy="340.5" rx="26.99" ry="27"/><ellipse class="cls-3" cx="908.27" cy="68.5" rx="49.99" ry="50"/><ellipse class="cls-3" cx="1034.23" cy="217.5" rx="44.99" ry="45"/><ellipse class="cls-3" cx="931.26" cy="340.5" rx="26.99" ry="27"/><ellipse class="cls-3" cx="1202.18" cy="68.5" rx="49.99" ry="50"/><ellipse class="cls-3" cx="1328.14" cy="217.5" rx="44.99" ry="45"/><ellipse class="cls-3" cx="1225.17" cy="340.5" rx="26.99" ry="27"/><ellipse class="cls-3" cx="1505.09" cy="68.5" rx="49.99" ry="50"/><ellipse class="cls-3" cx="1631.05" cy="217.5" rx="44.99" ry="45"/><ellipse class="cls-3" cx="1528.08" cy="340.5" rx="26.99" ry="27"/><path class="cls-3" d="M1749,68.5a50,50,0,0,0,32.64,46.9V21.6A50,50,0,0,0,1749,68.5Z"/><ellipse class="cls-3" cx="311.44" cy="474.5" rx="49.99" ry="50"/><ellipse class="cls-3" cx="437.4" cy="623.5" rx="44.99" ry="45"/><ellipse class="cls-3" cx="334.43" cy="746.5" rx="26.99" ry="27"/><ellipse class="cls-3" cx="605.35" cy="474.5" rx="49.99" ry="50"/><ellipse class="cls-3" cx="731.32" cy="623.5" rx="44.99" ry="45"/><ellipse class="cls-3" cx="628.35" cy="746.5" rx="26.99" ry="27"/><ellipse class="cls-3" cx="908.27" cy="474.5" rx="49.99" ry="50"/><ellipse class="cls-3" cx="1034.23" cy="623.5" rx="44.99" ry="45"/><ellipse class="cls-3" cx="931.26" cy="746.5" rx="26.99" ry="27"/><ellipse class="cls-3" cx="1202.18" cy="474.5" rx="49.99" ry="50"/><ellipse class="cls-3" cx="1328.14" cy="623.5" rx="44.99" ry="45"/><ellipse class="cls-3" cx="1225.17" cy="746.5" rx="26.99" ry="27"/><ellipse class="cls-3" cx="1505.09" cy="474.5" rx="49.99" ry="50"/><ellipse class="cls-3" cx="1631.05" cy="623.5" rx="44.99" ry="45"/><ellipse class="cls-3" cx="1528.08" cy="746.5" rx="26.99" ry="27"/><path class="cls-3" d="M1749,474.5a50,50,0,0,0,32.64,46.9V427.6A50,50,0,0,0,1749,474.5Z"/><ellipse class="cls-3" cx="311.44" cy="887.5" rx="49.99" ry="50"/><ellipse class="cls-3" cx="437.4" cy="1036.5" rx="44.99" ry="45"/><ellipse class="cls-3" cx="334.43" cy="1159.5" rx="26.99" ry="27"/><ellipse class="cls-3" cx="605.35" cy="887.5" rx="49.99" ry="50"/><ellipse class="cls-3" cx="731.32" cy="1036.5" rx="44.99" ry="45"/><ellipse class="cls-3" cx="628.35" cy="1159.5" rx="26.99" ry="27"/><ellipse class="cls-3" cx="908.27" cy="887.5" rx="49.99" ry="50"/><ellipse class="cls-3" cx="1034.23" cy="1036.5" rx="44.99" ry="45"/><ellipse class="cls-3" cx="931.26" cy="1159.5" rx="26.99" ry="27"/><ellipse class="cls-3" cx="1202.18" cy="887.5" rx="49.99" ry="50"/><ellipse class="cls-3" cx="1328.14" cy="1036.5" rx="44.99" ry="45"/><ellipse class="cls-3" cx="1225.17" cy="1159.5" rx="26.99" ry="27"/><ellipse class="cls-3" cx="1505.09" cy="887.5" rx="49.99" ry="50"/><ellipse class="cls-3" cx="1631.05" cy="1036.5" rx="44.99" ry="45"/><ellipse class="cls-3" cx="1528.08" cy="1159.5" rx="26.99" ry="27"/><path class="cls-3" d="M1749,887.5a50,50,0,0,0,32.64,46.9V840.6A50,50,0,0,0,1749,887.5Z"/><ellipse class="cls-3" cx="311.44" cy="1293.5" rx="49.99" ry="50"/><ellipse class="cls-3" cx="437.4" cy="1442.5" rx="44.99" ry="45"/><ellipse class="cls-3" cx="334.43" cy="1565.5" rx="26.99" ry="27"/><ellipse class="cls-3" cx="605.35" cy="1293.5" rx="49.99" ry="50"/><ellipse class="cls-3" cx="731.32" cy="1442.5" rx="44.99" ry="45"/><ellipse class="cls-3" cx="628.35" cy="1565.5" rx="26.99" ry="27"/><ellipse class="cls-3" cx="908.27" cy="1293.5" rx="49.99" ry="50"/><ellipse class="cls-3" cx="1034.23" cy="1442.5" rx="44.99" ry="45"/><ellipse class="cls-3" cx="931.26" cy="1565.5" rx="26.99" ry="27"/><ellipse class="cls-3" cx="1202.18" cy="1293.5" rx="49.99" ry="50"/><ellipse class="cls-3" cx="1328.14" cy="1442.5" rx="44.99" ry="45"/><ellipse class="cls-3" cx="1225.17" cy="1565.5" rx="26.99" ry="27"/><ellipse class="cls-3" cx="1505.09" cy="1293.5" rx="49.99" ry="50"/><ellipse class="cls-3" cx="1631.05" cy="1442.5" rx="44.99" ry="45"/><ellipse class="cls-3" cx="1528.08" cy="1565.5" rx="26.99" ry="27"/><path class="cls-3" d="M1749,1293.5a50,50,0,0,0,32.64,46.9v-93.8A50,50,0,0,0,1749,1293.5Z"/><ellipse class="cls-3" cx="311.44" cy="1700.5" rx="49.99" ry="50"/><path class="cls-3" d="M437.4,1804.5a45,45,0,0,0-38.29,21.38H475.7A45,45,0,0,0,437.4,1804.5Z"/><ellipse class="cls-3" cx="605.35" cy="1700.5" rx="49.99" ry="50"/><path class="cls-3" d="M731.32,1804.5a45,45,0,0,0-38.3,21.38h76.59A45,45,0,0,0,731.32,1804.5Z"/><ellipse class="cls-3" cx="908.27" cy="1700.5" rx="49.99" ry="50"/><path class="cls-3" d="M1034.23,1804.5a44.93,44.93,0,0,0-38.29,21.38h76.58A44.94,44.94,0,0,0,1034.23,1804.5Z"/><ellipse class="cls-3" cx="1202.18" cy="1700.5" rx="49.99" ry="50"/><path class="cls-3" d="M1328.14,1804.5a45,45,0,0,0-38.29,21.38h76.58A44.93,44.93,0,0,0,1328.14,1804.5Z"/><ellipse class="cls-3" cx="1505.09" cy="1700.5" rx="49.99" ry="50"/><path class="cls-3" d="M1631.05,1804.5a45,45,0,0,0-38.29,21.38h76.59A45,45,0,0,0,1631.05,1804.5Z"/><path class="cls-3" d="M1749,1700.5a50,50,0,0,0,32.64,46.9v-93.8A50,50,0,0,0,1749,1700.5Z"/></g><path class="cls-4" d="M233.43,789.77C125.24,802.79,36,960.67,73.52,1038.53c47.64,98.93,314,98,360.93-3.08,31.52-67.8-31.17-190.39-124.06-231.62C295.66,797.29,268.11,785.6,233.43,789.77Z"/><path class="cls-4" d="M342.46,821.29a542.83,542.83,0,0,1,42-137.4c6.26-13.64,58.74-128,86.4-120.6,24.18,6.49,36.92,108-3.6,185.4-26.29,50.19-81.32,103.39-85.2,108-5.4-6-13.45-13.44-19.8-19.2C355.61,831.45,350.26,827.29,342.46,821.29Z"/><path class="cls-4" d="M153.46,826.09a537.37,537.37,0,0,0-41.62-136.8c-6.27-13.66-58.85-128-86.4-120.6C1.57,575.14-5,673.49,29,754.09c23.36,55.28,61.12,91,86.62,111,6-7.2,12-14.36,18.6-21C140.42,837.93,146.86,832.09,153.46,826.09Z"/><path class="cls-5" d="M118.06,828.49c12.18-6.32-2.84-77.55-24.38-122.28C78,673.66,54,624.05,41.86,628.69c-12,4.58-3.75,77,19.8,126.6C82.59,799.38,106.92,834.26,118.06,828.49Z"/><path class="cls-5" d="M375.55,828.49c-12.18-6.32,2.84-77.55,24.38-122.28,15.67-32.55,39.68-82.16,51.82-77.52s3.76,77-19.8,126.6C411,799.38,386.69,834.26,375.55,828.49Z"/><path class="cls-6" d="M138.83,942.2c3.09,9.87,12.48,22.95,26.89,24.84,17.77,2.33,30.81-14,31.63-15,18.71-24.18,3.81-70.24-15-73.77C163.13,874.62,129.78,913.29,138.83,942.2Z"/><path class="cls-6" d="M360.43,940.4c-3.08,9.87-12.48,23-26.88,24.84-17.78,2.33-30.82-14-31.63-15-18.72-24.18-3.82-70.24,15-73.77C336.14,872.82,369.48,911.49,360.43,940.4Z"/><circle class="cls-7" cx="181.51" cy="898.54" r="10.05"/><circle class="cls-7" cx="315.31" cy="898.54" r="10.05"/><path class="cls-5" d="M238.36,980.59c2.23-5.73,20.2-6.27,22.8-.6,1.81,3.93-2.66,13.42-10.8,13.8C242,994.18,236.78,984.64,238.36,980.59Z"/></g></g></svg>