<svg id="Calque_1" data-name="Calque 1" xmlns="http://www.w3.org/2000/svg" viewBox="0 0 824.23 926.08"><defs><style>.cls-1,.cls-4{fill:#fff;}.cls-1,.cls-2,.cls-3{stroke:#000;stroke-miterlimit:10;}.cls-1{stroke-width:11px;}.cls-2{fill:#ffb0f4;}</style></defs><title>lapinBase</title><path class="cls-1" d="M887.78,768c-180.31,21.7-329,284.83-266.51,414.59,79.39,164.89,523.24,163.28,601.54-5.14,52.53-113-51.94-317.3-206.76-386C991.5,780.5,945.59,761,887.78,768Z" transform="translate(-502.4 -384.42)"/><path class="cls-1" d="M1069.5,820.5a905.35,905.35,0,0,1,70-229c10.43-22.73,97.89-213.39,144-201,40.29,10.83,61.53,180.08-6,309-43.82,83.66-135.54,172.33-142,180-9-10-22.41-22.39-33-32C1091.42,837.44,1082.5,830.5,1069.5,820.5Z" transform="translate(-502.4 -384.42)"/><path class="cls-1" d="M754.5,828.5c-9.39-55.75-27.34-136.56-69.37-228-10.46-22.75-98.09-213.41-144-201-39.78,10.75-50.77,174.67,6,309C586.07,800.64,649,860.18,691.5,893.5c10-12,19.93-23.93,31-35C732.77,848.23,743.5,838.5,754.5,828.5Z" transform="translate(-502.4 -384.42)"/><path class="cls-2" d="M695.5,832.5c20.3-10.52-4.73-129.24-40.63-203.8-26.12-54.25-66.13-136.93-86.37-129.2-20,7.64-6.26,128.3,33,211C636.39,784,676.94,842.12,695.5,832.5Z" transform="translate(-502.4 -384.42)"/><path class="cls-2" d="M1124.66,832.5c-20.3-10.52,4.73-129.24,40.63-203.8,26.12-54.25,66.13-136.93,86.37-129.2,20,7.64,6.25,128.3-33,211C1183.77,784,1143.22,842.12,1124.66,832.5Z" transform="translate(-502.4 -384.42)"/><path class="cls-3" d="M730.11,1022c5.15,16.45,20.8,38.25,44.82,41.4,29.62,3.89,51.35-23.32,52.72-25.09,31.18-40.29,6.35-117-25-122.94C770.61,909.39,715,973.84,730.11,1022Z" transform="translate(-502.4 -384.42)"/><path class="cls-3" d="M1099.46,1019c-5.15,16.45-20.8,38.25-44.82,41.4-29.62,3.89-51.35-23.32-52.72-25.09-31.18-40.29-6.35-117,25.05-122.94C1059,906.39,1114.54,970.84,1099.46,1019Z" transform="translate(-502.4 -384.42)"/><circle class="cls-4" cx="298.85" cy="564.83" r="16.75"/><circle class="cls-4" cx="521.85" cy="564.83" r="16.75"/><path class="cls-2" d="M896,1086c3.71-9.54,33.67-10.44,38-1,3,6.56-4.44,22.37-18,23C902.07,1108.65,893.37,1092.76,896,1086Z" transform="translate(-502.4 -384.42)"/></svg>